<?xml version="1.0" standalone="no"?>
<!DOCTYPE svg PUBLIC "-//W3C//DTD SVG 20010904//EN"
 "http://www.w3.org/TR/2001/REC-SVG-20010904/DTD/svg10.dtd">
<svg version="1.0" xmlns="http://www.w3.org/2000/svg"
 width="822.000000pt" height="721.000000pt" viewBox="0 0 822.000000 721.000000"
 preserveAspectRatio="xMidYMid meet">

<g transform="translate(0.000000,721.000000) scale(0.100000,-0.100000)"
fill="#000000" stroke="none">
<path d="M1030 6955 l0 -255 -255 0 -255 0 0 -520 0 -520 -260 0 -260 0 0
-1545 0 -1545 260 0 260 0 0 -255 0 -255 255 0 255 0 0 -775 0 -775 255 0 255
0 0 -255 0 -255 255 0 255 0 0 255 0 255 265 0 265 0 0 -255 0 -255 255 0 255
0 0 255 0 255 770 0 770 0 0 -255 0 -255 255 0 255 0 0 255 0 255 255 0 255 0
0 -255 0 -255 520 0 520 0 0 255 0 255 255 0 255 0 0 1030 0 1030 255 0 255 0
0 255 0 255 -255 0 -255 0 0 520 0 520 255 0 255 0 2 -517 3 -518 253 -3 252
-2 0 520 0 520 -255 0 -255 0 0 260 0 260 -252 -2 -253 -3 -3 -257 -2 -258
-255 0 -255 0 0 -520 0 -520 -520 0 -520 0 0 265 0 265 -255 0 -255 0 -2 768
-3 767 -252 3 -253 2 -2 773 -3 772 -257 3 -258 2 0 255 0 255 -255 0 -255 0
0 -255 0 -255 -255 0 -255 0 0 -255 0 -255 -520 0 -520 0 0 255 0 255 -255 0
-255 0 0 255 0 255 -255 0 -255 0 0 -255z m510 -510 l0 -255 255 0 255 0 0
-265 0 -265 520 0 520 0 0 265 0 265 255 0 255 0 0 255 0 255 255 0 255 0 0
-775 0 -775 260 0 260 0 0 -770 0 -770 255 0 255 0 2 -262 3 -263 253 -3 252
-2 0 -255 0 -255 520 0 520 0 0 255 0 255 255 0 255 0 0 -255 0 -255 -255 0
-255 0 0 -1030 0 -1030 -520 0 -520 0 0 255 0 255 -255 0 -255 0 0 -255 0
-255 -255 0 -255 0 0 255 0 255 -512 2 -513 3 -3 263 -2 262 -255 0 -255 0 0
-520 0 -520 -255 0 -255 0 0 520 0 520 -265 0 -265 0 0 -520 0 -520 -255 0
-255 0 0 1030 0 1030 -510 0 -510 0 0 1545 0 1545 255 0 255 0 0 520 0 520
255 0 255 0 0 -255z"/>
<path d="M1547 4633 c-4 -3 -7 -120 -7 -260 l0 -253 255 0 255 0 0 -255 0
-255 -255 0 -255 0 2 -262 3 -263 770 0 770 0 3 263 2 262 -255 0 -255 0 0
255 0 255 255 0 255 0 -2 258 -3 257 -252 3 -253 2 0 -260 0 -260 -265 0 -265
0 0 260 0 260 -248 0 c-137 0 -252 -3 -255 -7z"/>
</g>
</svg>
