<?xml version="1.0" standalone="no"?><!DOCTYPE svg PUBLIC "-//W3C//DTD SVG 1.1//EN" "http://www.w3.org/Graphics/SVG/1.1/DTD/svg11.dtd"><svg t="1637556393836" class="icon" viewBox="0 0 1024 1024" version="1.1" xmlns="http://www.w3.org/2000/svg" p-id="5074" xmlns:xlink="http://www.w3.org/1999/xlink" width="200" height="200"><defs><style type="text/css"></style></defs><path d="M652.8 420.266667c-8.533333-10.666667-19.2-14.933333-32-14.933334H320c-23.466667 0-42.666667 19.2-42.666667 42.666667v426.666667c0 23.466667 19.2 42.666667 42.666667 42.666666h384c23.466667 0 42.666667-19.2 42.666667-42.666666V548.266667c0-10.666667-4.266667-19.2-10.666667-27.733334l-83.2-100.266666zM682.666667 853.333333H341.333333V469.333333h268.8l72.533334 87.466667V853.333333z" p-id="5075"></path><path d="M586.666667 640h-149.333334c-17.066667 0-32 14.933333-32 32s14.933333 32 32 32h149.333334c17.066667 0 32-14.933333 32-32s-14.933333-32-32-32zM586.666667 746.666667h-149.333334c-17.066667 0-32 14.933333-32 32s14.933333 32 32 32h149.333334c17.066667 0 32-14.933333 32-32s-14.933333-32-32-32zM437.333333 597.333333h85.333334c17.066667 0 32-14.933333 32-32s-14.933333-32-32-32h-85.333334c-17.066667 0-32 14.933333-32 32s14.933333 32 32 32z" p-id="5076"></path><path d="M725.333333 236.8C691.2 160 612.266667 106.666667 522.666667 106.666667c-104.533333 0-194.133333 72.533333-217.6 170.666666-108.8 2.133333-198.4 91.733333-198.4 202.666667 0 51.2 19.2 98.133333 51.2 134.4 19.2 21.333333 55.466667 8.533333 55.466666-21.333333 0-8.533333-4.266667-14.933333-8.533333-21.333334-19.2-23.466667-32-53.333333-34.133333-85.333333-2.133333-76.8 64-142.933333 140.8-145.066667h42.666666l10.666667-42.666666c12.8-53.333333 51.2-100.266667 104.533333-117.333334 81.066667-27.733333 164.266667 12.8 198.4 85.333334L682.666667 298.666667l27.733333 4.266666c78.933333 10.666667 145.066667 85.333333 142.933333 164.266667-2.133333 36.266667-14.933333 68.266667-34.133333 93.866667-4.266667 6.4-8.533333 12.8-8.533333 21.333333 0 29.866667 38.4 42.666667 55.466666 21.333333 32-38.4 51.2-87.466667 51.2-140.8 0-117.333333-83.2-209.066667-192-226.133333z" p-id="5077"></path></svg>