<?xml version="1.0" standalone="no"?><!DOCTYPE svg PUBLIC "-//W3C//DTD SVG 1.1//EN" "http://www.w3.org/Graphics/SVG/1.1/DTD/svg11.dtd"><svg t="1637556369754" class="icon" viewBox="0 0 1024 1024" version="1.1" xmlns="http://www.w3.org/2000/svg" p-id="4245" xmlns:xlink="http://www.w3.org/1999/xlink" width="200" height="200"><defs><style type="text/css"></style></defs><path d="M791.599454 96.906615 136.244449 96.906615C118.595434 96.906615 104.273171 111.213893 104.273171 128.871649L104.273171 992.033717C104.273171 1009.676488 118.595434 1023.998751 136.244449 1023.998751L631.755551 1023.998751 823.570732 832.189815 823.570732 128.871649C823.570732 111.213893 809.263454 96.906615 791.599454 96.906615L791.599454 96.906615ZM775.620059 768.247259 599.790517 768.247259C582.141502 768.247259 567.819239 782.569522 567.819239 800.218537L567.819239 976.048078 184.195122 976.048078C166.546107 976.048078 152.223844 961.725815 152.223844 944.0768L152.223844 176.828566C152.223844 159.164566 166.546107 144.857288 184.195122 144.857288L743.64878 144.857288C761.31278 144.857288 775.620059 159.164566 775.620059 176.828566L775.620059 768.247259 775.620059 768.247259Z" p-id="4246"></path><path d="M887.507044 0.999024 220.161249 0.999024C193.688351 0.999024 172.204332 22.46681 172.204332 48.949698L839.556371 48.949698C857.219122 48.949698 871.521405 63.256976 871.521405 80.920976L871.521405 747.935844C897.898146 747.935844 919.253541 726.642888 919.443356 700.316098L919.478322 700.316098 919.478322 32.970302C919.478322 15.306302 905.171044 0.999024 887.507044 0.999024L887.507044 0.999024Z" p-id="4247"></path><path d="M651.8 336.985365 630.092683 430.887805 613.263415 430.887805C613.100812 425.19672 612.328462 417.96102 610.946341 409.180487 609.564221 400.399956 607.57237 392.513856 604.970732 385.521951 602.20649 378.042239 598.588641 371.619539 594.117073 366.253658 589.645506 360.887778 584.320356 357.717078 578.141464 356.741463 573.26339 356.091054 567.04394 355.603254 559.482927 355.278049 551.921914 354.952844 544.889464 354.790244 538.385366 354.790244L523.019513 354.790244 458.629269 634.058537C458.304064 635.359356 458.060163 636.782106 457.897561 638.326829 457.734958 639.871553 457.653659 641.375603 457.653659 642.839025 457.653659 646.741483 458.385358 649.952833 459.84878 652.47317 461.312202 654.993509 464.076403 657.229258 468.141463 659.180488 471.393512 660.481307 477.287762 662.066657 485.82439 663.936586 494.361018 665.806513 501.312169 666.822763 506.678048 666.985366L502.775609 683.082927 339.360975 683.082927 343.263414 666.985366C348.141488 666.660161 355.214588 666.009761 364.482927 665.034146 373.751266 664.058532 380.499166 662.839031 384.726829 661.37561 391.230927 658.936574 396.108927 655.603274 399.360975 651.37561 402.613024 647.147946 404.889424 642.107346 406.190244 636.253659L471.068292 354.790244 458.141464 354.790244C453.26339 354.790244 447.165891 354.912194 439.84878 355.156098 432.531671 355.400001 425.052071 355.928451 417.409756 356.741463 412.043876 357.391873 405.783776 360.603223 398.629269 366.37561 391.47476 372.147997 384.320361 378.936546 377.165854 386.741463 370.336551 394.383778 364.157751 402.147929 358.629269 410.034146 353.100785 417.920365 348.791885 424.871515 345.702439 430.887805L328.629268 430.887805 350.336586 336.985365 651.8 336.985365Z" p-id="4248"></path></svg>